<?xml version="1.0" encoding="utf-8"?>
<!-- Generator: Adobe Illustrator 23.0.0, SVG Export Plug-In . SVG Version: 6.00 Build 0)  -->
<svg version="1.1" id="图层_1" xmlns="http://www.w3.org/2000/svg" xmlns:xlink="http://www.w3.org/1999/xlink" x="0px" y="0px"
	 viewBox="0 0 1234.13 391.93" style="enable-background:new 0 0 1234.13 391.93;" xml:space="preserve">
<style type="text/css">
	.st0{fill:#EAB82D;}
	.st1{fill:#050000;}
	.st2{fill:#E9B62F;}
</style>
<g>
	<path class="st0" d="M788.3,191.65c0.18-3.23-0.39-6.41-0.54-9.61c-0.3-6.1,0.42-12.21,0.83-18.29c0.49-7.22,1.65-14.43,3.73-21.41
		c2.46-8.27,5.77-16.09,11.36-22.87c5.5-6.68,12.38-10.81,20.69-12.86c3.29-0.81,6.64-0.47,9.9-0.88c4.91-0.62,9.82-0.19,14.7-0.65
		c1.43-0.14,2.89-0.01,4.33-0.11c7.24-0.5,14.52-0.33,21.73-0.8c6.73-0.44,13.47-0.18,20.18-0.78c0.55-0.05,1.27-0.27,1.51,0.36
		c0.3,0.79-0.64,0.76-1.02,1.07c-5.06,3.99-8.82,8.98-11.73,14.7c-3.27,6.41-5.32,13.23-6.71,20.24c-0.57,2.87-0.66,5.89-1.05,8.79
		c-0.6,4.44-0.05,8.79,0.2,13.15c0.27,4.75,1.12,9.46,1.96,14.16c0.56,3.14,1.28,6.24,1.87,9.37c0.72,3.86,1.73,7.66,2.62,11.49
		c0.79,3.35,1.58,6.7,2.4,10.05c0.19,0.78,0.02,0.97-0.8,0.95c-1.88-0.04-3.77,0.08-5.65,0.08c-28.78,0.01-57.56-0.02-86.34,0.06
		c-1.97,0.01-2.91-0.51-3.03-2.48C789.14,200.79,788.25,196.26,788.3,191.65z"/>
	<path class="st1" d="M1010.12,17.01c-1.55,2.39-3,4.67-4.5,6.92c-9.22,13.91-18.44,27.81-27.66,41.72
		c-4.67,7.05-9.34,14.11-14,21.18c-6.52,9.88-13.01,19.79-19.57,29.64c-0.55,0.83-0.48,1.18,0.12,1.85
		c3.46,3.9,6.83,7.89,10.32,11.77c2.07,2.3,2.13,2.22,0.24,4.6c-4.23,5.34-8.4,10.72-12.66,16.04c-3.88,4.85-7.89,9.59-11.77,14.44
		c-5.43,6.76-10.76,13.6-16.19,20.36c-3.88,4.84-7.86,9.59-11.77,14.4c-2.12,2.62-4.18,5.29-6.38,8.08
		c-2.77-5.26-4.5-10.69-6.3-16.08c-2.24-6.72-3.91-13.61-5.24-20.56c-1.68-8.79-2.13-17.72-1.51-26.61
		c0.71-10.2,3.36-19.91,9.33-28.5c3.36-4.84,7.27-9.11,12.61-11.65c7.09-3.37,14.19-2.68,20.93,1.11c1.35,0.76,1.83,0.18,2.31-0.59
		c4.39-7.03,8.7-14.11,13.07-21.15c3.91-6.3,7.87-12.57,11.8-18.87c3.09-4.96,6.16-9.94,9.22-14.92c0.15-0.24,0.17-0.56,0.34-1.15
		c-2.88,2.43-5.5,4.65-8.14,6.86c-4.04,3.39-8.2,6.66-12.12,10.19c-3.73,3.36-7.61,6.54-11.42,9.81c-4.6,3.95-9.28,7.79-13.9,11.71
		c-3.7,3.14-7.44,6.24-11.02,9.51c-2.24,2.05-4.49,3.61-7.73,3.21c-2.15-0.26-4.29,0.72-6.78,0.16c3.13-2.8,6.1-5.49,9.12-8.14
		c2.37-2.08,4.79-4.09,7.17-6.16c3.98-3.47,7.94-6.95,11.89-10.44c2.45-2.16,4.85-4.38,7.31-6.54c3.88-3.4,7.8-6.74,11.67-10.14
		c2.47-2.17,4.85-4.44,7.33-6.6c4.85-4.24,9.76-8.41,14.6-12.66c3.72-3.26,7.36-6.61,11.06-9.9c1.9-1.69,3.72-3.52,5.81-4.96
		c1.83-1.26,4.19-1.36,6.32-1.9c8.35-2.11,16.74-4.08,25.12-6.09C1009.37,16.9,1009.64,16.98,1010.12,17.01z"/>
	<path class="st1" d="M267.89,205.92c0,19.69-0.03,39.37,0.05,59.05c0.01,1.78-0.51,2.13-2.16,2.09c-5.36-0.1-10.73-0.08-16.1-0.01
		c-1.39,0.02-1.93-0.23-1.92-1.82c0.05-31.89,0.05-63.77,0.01-95.66c0-1.46,0.33-1.92,1.85-1.91c8.65,0.07,17.3,0.05,25.95,0.01
		c1.51-0.01,2.1,0.31,2.26,2.06c0.41,4.5,1.27,8.95,1.83,13.43c0.69,5.56,1.21,11.14,1.9,16.7c0.48,3.92,1.12,7.81,1.67,11.54
		c0.84-5.39,1.31-10.99,2.01-16.56c0.49-3.89,0.9-7.82,1.24-11.74c0.41-4.71,0.98-9.41,1.52-14.11c0.09-0.8,0.46-1.31,1.46-1.31
		c9.22,0.03,18.44,0.03,27.65,0.01c0.87,0,1.32,0.23,1.2,1.16c-0.03,0.25,0,0.5,0,0.76c0,31.57,0,63.14,0,94.71
		c0,2.68-0.01,2.68-2.69,2.68c-5.3,0-10.61-0.07-15.91,0.05c-1.66,0.04-1.93-0.51-1.92-2.01c0.05-16.98,0.02-33.97,0.02-50.95
		c0-2.57,0-5.15-0.08-7.73c-0.75,5.86-1.6,11.71-2.16,17.59c-0.46,4.82-1.28,9.6-1.88,14.41c-0.43,3.52-0.73,7.06-1.14,10.59
		c-0.45,3.9-0.97,7.8-1.43,11.7c-0.2,1.67-0.38,3.34-0.46,5.02c-0.04,0.97-0.39,1.35-1.36,1.34c-4.1-0.03-8.21-0.03-12.31,0.01
		c-0.92,0.01-1.07-0.33-1.18-1.19c-0.94-7.07-1.66-14.16-2.66-21.21c-1.05-7.32-1.78-14.68-2.92-21.99
		c-0.69-4.47-1.02-8.99-1.59-13.48C268.49,208.08,268.02,207.04,267.89,205.92z"/>
	<path class="st0" d="M794.82,326.05c1.16-1.56,1.01-3.35,1.21-5.07c0.64-5.54,1.32-11.08,1.95-16.62
		c0.39-3.44,0.82-6.88,1.03-10.33c0.16-2.57,0.96-5.06,0.82-7.65c-0.05-0.87,0.64-0.79,1.19-0.8c7.83,0,15.66,0.01,23.48,0.01
		c0.9,0,1.55,0.23,1.33,1.28c-0.36,1.77,0.02,3.52,0.02,5.28c-0.02,26.32-0.02,52.65-0.02,78.97c0,1.95-0.1,3.9-0.03,5.85
		c0.03,0.84-0.19,1.17-1,1.17c-5.24-0.01-10.47-0.01-15.71,0c-0.73,0-0.99-0.37-0.97-1.07c0.03-1.01,0.01-2.02,0.01-3.03
		c0-17.68,0-35.35-0.01-53.03c0-1.11-0.09-2.22-0.38-3.36c-0.28,2.71-0.84,5.37-1.07,8.05c-0.58,6.67-1.55,13.3-2.19,19.97
		c-0.52,5.47-1.2,10.93-1.75,16.39c-0.48,4.8-1.07,9.6-1.53,14.4c-0.12,1.24-0.75,1.71-2,1.68c-2.9-0.06-5.81-0.1-8.71,0.02
		c-1.36,0.06-1.94-0.56-1.94-1.69c-0.01-3.6-0.86-7.11-1.11-10.69c-0.26-3.78-0.96-7.53-1.42-11.3c-0.49-4.04-0.75-8.12-1.44-12.13
		c-0.58-3.4-0.78-6.84-1.28-10.24c-0.42-2.86-0.97-5.77-0.98-8.71c0-0.92,0.05-1.92-1.15-2.53c-0.39,2.04-0.27,4.04-0.15,6
		c0.26,4.1-0.01,8.19,0.05,12.29c0.17,12.05,0.08,24.11,0.08,36.17c0,2.99-0.19,3.02-3.07,2.92c-4.1-0.14-8.2-0.22-12.3-0.09
		c-1.98,0.06-2.4-0.61-2.4-2.46c0.06-25.38,0.04-50.75,0.04-76.13c0-4.1,0.04-8.21-0.02-12.31c-0.02-1.26,0.28-1.77,1.66-1.76
		c7.83,0.06,15.66,0.05,23.48,0.01c1.04,0,1.37,0.26,1.42,1.35c0.26,5.26,1.12,10.47,1.74,15.68c0.7,5.84,1.39,11.69,2.11,17.54
		C794.09,322.1,794.66,324.01,794.82,326.05z"/>
	<path class="st1" d="M499.75,217.51c0,15.79-0.04,31.57,0.05,47.35c0.01,1.9-0.53,2.23-2.29,2.2c-6.38-0.11-12.75-0.09-19.13,0
		c-1.43,0.02-1.8-0.34-1.79-1.76c0.05-12.56,0-25.13,0.07-37.69c0.01-1.6-0.41-1.97-1.97-1.94c-4.49,0.1-4.49,0.03-4.49,4.48
		c0,11.55-0.06,23.11,0.06,34.66c0.02,2-0.57,2.29-2.38,2.26c-6.31-0.12-12.63-0.09-18.94-0.02c-1.4,0.01-1.92-0.22-1.92-1.8
		c0.06-31.89,0.06-63.77,0.02-95.66c0-1.44,0.3-1.91,1.83-1.89c6.57,0.09,13.13,0.07,19.7,0c1.33-0.01,1.67,0.34,1.66,1.67
		c-0.06,10.61-0.01,21.22-0.06,31.82c-0.01,1.35,0.24,2.01,1.74,1.8c1.54-0.21,3.61,0.69,4.5-0.39c0.75-0.91,0.21-2.89,0.21-4.4
		c0.01-9.6,0.02-19.19-0.03-28.79c-0.01-1.27,0.26-1.75,1.63-1.73c6.57,0.07,13.13,0.08,19.7,0.01c1.5-0.02,1.86,0.42,1.86,1.9
		C499.73,185.56,499.75,201.53,499.75,217.51z"/>
	<path class="st1" d="M124.32,224.73c0,13.25,0,26.5,0,39.75c0,2.55,0,2.54-2.64,2.54c-5.05,0-10.1-0.04-15.15,0.03
		c-1.19,0.02-1.58-0.25-1.58-1.53c0.04-32.13,0.04-64.25,0-96.38c0-1.19,0.31-1.46,1.47-1.45c5.43,0.06,10.86,0.1,16.28-0.02
		c1.46-0.03,1.96,0.6,2.29,1.78c2.66,9.38,5.33,18.77,8.01,28.15c1.17,4.09,2.34,8.18,3.8,12.27c0-1.11,0-2.21,0-3.32
		c0-12.31,0.04-24.62-0.04-36.92c-0.01-1.6,0.44-1.99,1.98-1.96c5.17,0.09,10.35,0.07,15.53,0.01c1.4-0.02,1.92,0.27,1.91,1.85
		c-0.05,31.94-0.04,63.87-0.01,95.81c0,1.27-0.25,1.74-1.63,1.72c-5.81-0.08-11.61-0.07-17.42-0.01c-1.11,0.01-1.55-0.37-1.8-1.36
		c-2.19-8.59-4.4-17.18-6.63-25.76c-1.33-5.1-2.72-10.19-4.08-15.29C124.52,224.67,124.42,224.7,124.32,224.73z"/>
	<path class="st1" d="M561.52,223.67c0,14.11-0.03,27.88,0.04,41.64c0.01,1.44-0.35,1.78-1.77,1.75c-5.3-0.09-10.61-0.1-15.91,0.01
		c-1.46,0.03-1.73-0.39-1.73-1.76c0.04-25.51,0.03-51.01,0.03-76.52c0-6.5,0.03-13.01-0.03-19.51c-0.01-1.25,0.34-1.59,1.57-1.57
		c5.56,0.06,11.11,0.04,16.67,0.02c0.87,0,1.4,0.04,1.7,1.13c2.66,9.73,5.37,19.44,8.15,29.13c1.04,3.62,2.27,7.18,3.11,10.86
		c0.05,0.2,0.3,0.36,0.65,0.76c0-1.66,0-3.07,0-4.48c0-11.87,0.02-23.74-0.03-35.61c-0.01-1.36,0.24-1.85,1.72-1.82
		c5.36,0.09,10.73,0.07,16.1,0.01c1.22-0.01,1.57,0.3,1.57,1.56c-0.03,32.07-0.03,64.15,0.01,96.22c0,1.26-0.35,1.57-1.58,1.56
		c-5.81-0.06-11.62-0.02-17.43-0.01c-0.84,0-1.34,0.01-1.64-1.16c-3.3-12.95-6.71-25.86-10.11-38.79
		C562.36,226.05,561.97,225.03,561.52,223.67z"/>
	<path class="st1" d="M407.31,217.54c0,7.64,0.03,15.27-0.01,22.91c-0.02,2.83,0.25,5.63,0.72,8.4c0.38,2.23,1.92,3.5,3.56,3.36
		c1.66-0.14,3.13-2.09,3.33-4.15c0.62-6.35,0.27-12.72,0.31-19.08c0.01-1.32,0.17-1.84,1.69-1.81c6.63,0.1,13.25,0.09,19.88,0.01
		c1.36-0.02,1.6,0.38,1.63,1.67c0.11,4.92-0.06,9.83-0.48,14.71c-0.35,4.03-0.65,8.1-2.5,11.92c-2.61,5.39-6.7,9.1-12.02,11.52
		c-4.52,2.05-9.38,2.61-14.26,2.24c-4.92-0.37-9.76-1.35-14.06-4.01c-4.79-2.96-7.76-7.27-8.97-12.74c-1.06-4.76-1.35-9.6-1.6-14.47
		c-0.63-12.15-0.41-24.3-0.21-36.44c0.08-5.11-0.24-10.31,0.67-15.38c1.43-7.96,5.48-14.12,12.93-17.76
		c3.26-1.6,6.68-2.33,10.32-2.67c4.85-0.45,9.49,0.06,14.05,1.6c7.65,2.59,12.65,7.73,14.57,15.64c0.84,3.45,0.98,7,1.28,10.54
		c0.45,5.42,0.07,10.83,0.29,16.23c0.05,1.24-0.31,1.56-1.54,1.55c-6.69-0.06-13.38-0.06-20.07,0c-1.25,0.01-1.58-0.34-1.56-1.57
		c0.06-6.25,0.02-12.5,0.04-18.75c0.01-2.12-0.16-4.21-0.78-6.26c-0.55-1.82-1.99-1.86-3.48-1.83c-1.6,0.03-2.64,0.95-2.89,2.41
		c-0.4,2.31-0.74,4.67-0.77,7.01C407.26,200.75,407.31,209.15,407.31,217.54z"/>
	<path class="st1" d="M23.86,231.38c3.03,0,6.06,0.06,9.09-0.03c1.22-0.04,1.62,0.25,1.6,1.53c-0.08,4.86-0.04,9.72-0.02,14.58
		c0.01,2.2,1.02,3.93,2.49,4.36c2.27,0.67,4.46-0.55,4.97-3.31c0.91-5,0.93-10.04-1.31-14.78c-1.21-2.57-3.62-4.05-5.75-5.71
		c-5.16-4.03-10.5-7.86-15.38-12.23c-3.75-3.35-5.66-7.86-6.52-12.71c-1.42-8.02-1.35-16.06,0.87-23.93
		c1.59-5.64,5.65-9.22,10.95-11.44c4.01-1.68,8.3-2.29,12.56-2.18c6.27,0.17,12.37,1.21,17.72,5.04c3.83,2.74,5.98,6.37,6.65,10.88
		c0.75,5.03,0.93,10.1,0.83,15.19c-0.02,1.15-0.26,1.48-1.45,1.47c-6.25-0.06-12.5-0.06-18.75,0.01c-1.21,0.01-1.49-0.36-1.46-1.51
		c0.08-2.9-0.03-5.81,0.05-8.71c0.03-1.09-0.24-2.12-0.46-3.13c-0.25-1.15-1.16-1.78-2.47-1.86c-1.88-0.12-2.96,0.89-3.48,2.43
		c-1.33,3.91-1.13,7.91,0.34,11.68c1.23,3.15,4.14,4.9,6.85,6.74c5.06,3.44,9.96,7.09,14.46,11.25c4.52,4.19,6.67,9.53,7.51,15.52
		c0.67,4.86,1.03,9.75,0.7,14.63c-0.29,4.29-0.45,8.65-2.35,12.67c-2.01,4.24-5.55,6.87-9.62,8.73c-4.74,2.16-9.84,3.06-15.06,2.74
		c-7.99-0.49-15.15-2.87-20.27-9.52c-2.19-2.84-2.85-6.25-3.44-9.65c-0.99-5.8-0.74-11.65-0.79-17.5c-0.01-1.03,0.36-1.27,1.32-1.26
		C17.42,231.4,20.64,231.37,23.86,231.38C23.86,231.37,23.86,231.37,23.86,231.38z"/>
	<path class="st0" d="M593.24,325.91c0.69-0.89,0.45-1.6,0.46-2.24c0.02-11.99,0.06-23.99-0.02-35.98
		c-0.01-1.79,0.57-2.19,2.24-2.15c4.35,0.11,8.71,0.08,13.06,0.01c1.35-0.02,1.65,0.38,1.63,1.75c-0.09,4.67,0.05,9.34,0.05,14
		c0.01,22.6,0.01,45.19,0,67.79c0,2.65-0.11,5.3-0.07,7.95c0.01,0.91-0.18,1.19-1.14,1.18c-4.92-0.06-9.84-0.07-14.75-0.01
		c-1.12,0.02-1.48-0.32-1.75-1.4c-0.92-3.68-1.63-7.42-2.75-11.06c-1.07-3.51-1.71-7.15-2.59-10.71c-0.8-3.27-1.67-6.52-2.52-9.77
		c-0.39-1.51-0.81-3.01-1.22-4.52c-0.14-0.49,0.13-1.31-0.73-1.29c-1.04,0.03-0.64,0.93-0.64,1.46c0.02,7,0.09,14.01,0.13,21.01
		c0.02,4.86-0.03,9.72,0.03,14.58c0.02,1.32-0.35,1.7-1.71,1.67c-4.48-0.1-8.96-0.08-13.44,0c-1.33,0.02-1.86-0.24-1.86-1.75
		c0.05-29.73,0.04-59.46,0.01-89.19c0-1.29,0.29-1.73,1.65-1.7c4.54,0.09,9.09,0.06,13.63,0.02c0.99-0.01,1.25,0.31,1.59,1.27
		c1.41,3.93,2.13,8.03,3.38,12c1.55,4.91,2.68,9.96,4.02,14.94c0.86,3.19,1.77,6.37,2.66,9.56
		C592.79,324.09,592.97,324.87,593.24,325.91z"/>
	<path class="st0" d="M366.98,324.59c0.26-1.55,0.77-3.11,0.75-4.66c-0.16-10.92-0.15-21.83,0.02-32.75
		c0.02-1.25,0.43-1.64,1.64-1.63c4.54,0.05,9.09,0.05,13.63,0c1.27-0.01,1.56,0.46,1.56,1.67c-0.03,29.6-0.02,59.21,0.04,88.81
		c0,1.63-0.36,2.2-2.07,2.15c-4.6-0.12-9.21-0.07-13.82-0.04c-1.02,0.01-1.48-0.21-1.79-1.34c-1.6-5.78-2.93-11.61-4.36-17.43
		c-1.12-4.54-2.48-9.02-3.51-13.58c-0.59-2.6-1.64-5.06-1.94-8.08c-0.87,1.18-0.57,2.21-0.58,3.12
		c-0.02,11.74-0.03,23.48,0.04,35.22c0.01,1.72-0.44,2.33-2.21,2.26c-4.16-0.16-8.33-0.26-12.49-0.13
		c-2.01,0.06-2.39-0.64-2.36-2.48c0.44-27.96,0.1-55.92,0.2-83.88c0.01-1.64-0.08-3.28-0.13-4.92c-0.03-0.96,0.41-1.36,1.36-1.36
		c4.61,0.02,9.22,0,13.82,0.03c0.97,0.01,1.54,0.43,1.8,1.52c0.83,3.43,1.8,6.83,2.78,10.23c0.6,2.08,1.11,4.21,1.69,6.31
		c1.17,4.26,2.38,8.51,3.42,12.8C365.11,319.14,366.29,321.68,366.98,324.59z"/>
	<path class="st0" d="M163.73,337.96c-0.56,1.03-0.4,1.78-0.4,2.49c-0.01,11.81,0,23.61,0,35.42c0,2.4-0.01,2.36-2.42,2.33
		c-4.17-0.05-8.33-0.09-12.5-0.02c-1.52,0.03-1.91-0.51-1.91-1.97c0.04-28.85,0.03-57.71,0.03-86.56c0-4.08,0-4.08,4.15-4.08
		c2.9,0,5.81,0,8.71,0c3.85-0.01,3.92,0.12,4.71,3.92c0.95,4.57,2.28,9.04,3.58,13.52c0.9,3.12,1.68,6.27,2.52,9.41
		c1.05,3.93,2.09,7.85,3.19,11.77c0.14,0.48,0.39,1.04,1.05,1.33c0.38-1.74-0.05-3.41-0.04-5.07c0.02-10.6,0.02-21.2,0.04-31.81
		c0-0.5,0.08-1.01,0.07-1.51c-0.03-1.19,0.47-1.61,1.71-1.59c4.42,0.07,8.84,0.09,13.26,0c1.5-0.03,1.95,0.47,1.94,1.93
		c-0.05,7.07-0.02,14.14-0.02,21.21c0,22.35-0.02,44.7,0.04,67.05c0.01,1.84-0.37,2.53-2.36,2.47c-4.41-0.13-8.83,0.02-13.25,0.04
		c-1.11,0-1.9-0.18-2.23-1.62c-1.27-5.55-2.72-11.05-4.15-16.57c-1.45-5.61-2.62-11.28-4.32-16.83
		C164.6,341.62,164.22,339.96,163.73,337.96z"/>
	<path class="st0" d="M1005.3,346.43c-0.56,5.15-0.97,10.33-1.73,15.45c-0.51,3.44-0.86,6.9-1.39,10.33
		c-0.23,1.47-0.19,2.96-0.52,4.46c-0.32,1.41-0.79,1.68-2.06,1.65c-5.24-0.11-10.48-0.16-15.71-0.15c-1.23,0-1.68-0.37-1.58-1.63
		c0.26-3.03,0.88-6,1.4-8.99c0.44-2.52,0.48-5.11,0.94-7.66c0.83-4.56,1.58-9.15,2.08-13.76c0.45-4.12,1.39-8.18,1.68-12.31
		c0.11-1.64,0.75-3.12,0.85-4.77c0.2-3.51-0.58-6.84-1.26-10.21c-0.67-3.31-1.23-6.64-1.75-9.97c-0.56-3.53-1.35-7-2.04-10.5
		c-0.73-3.75-1.23-7.54-1.84-11.31c-0.17-1.06,0.26-1.5,1.33-1.5c5.62,0.02,11.24,0.01,16.85,0c0.69,0,1.02,0.28,1.12,0.97
		c0.4,2.77,0.81,5.53,1.25,8.29c0.6,3.72,1.15,7.44,1.91,11.13c0.25,1.23,0.17,2.49,0.6,3.88c0.61-0.55,0.84-1.19,0.94-1.81
		c1.14-7.06,2.28-14.12,3.32-21.19c0.14-0.95,0.32-1.28,1.31-1.27c4.73,0.04,9.47,0.04,14.21-0.01c1.11-0.01,1.55,0.45,1.37,1.45
		c-0.71,4.07-1.44,8.14-2.21,12.2c-0.34,1.78-0.49,3.58-0.84,5.37c-1.35,6.95-2.41,13.96-3.57,20.94c-0.33,1.97,0.14,3.96,0.6,5.79
		c0.75,3,1.24,6.06,2.02,9.06c1.1,4.21,1.62,8.54,2.81,12.74c0.84,2.99,1.15,6.12,1.77,9.17c0.57,2.82,1.26,5.62,1.86,8.43
		c0.46,2.14,0.86,4.29,1.29,6.43c0.19,0.96-0.18,1.09-1.14,1.08c-5.3-0.05-10.6,0-15.9,0.09c-1.13,0.02-1.77-0.27-1.92-1.45
		c-0.81-6.28-2.68-12.36-3.37-18.68c-0.35-3.22-1.18-6.38-1.46-9.63c-0.07-0.75-0.57-1.46-0.88-2.19
		C1005.52,346.38,1005.41,346.4,1005.3,346.43z"/>
	<path class="st1" d="M603.16,217.39c0-15.9,0.03-31.81-0.04-47.71c-0.01-1.56,0.37-2.01,1.94-2c11.55,0.06,23.1,0.06,34.65,0.01
		c1.37-0.01,1.8,0.29,1.77,1.75c-0.1,5.62-0.07,11.23-0.01,16.85c0.01,1.2-0.26,1.6-1.53,1.57c-4.1-0.09-8.2,0-12.31-0.06
		c-1.05-0.01-1.38,0.24-1.37,1.34c0.06,5.3,0.06,10.6,0,15.9c-0.01,1.09,0.32,1.37,1.38,1.35c3.72-0.06,7.45,0.02,11.17-0.04
		c1.22-0.02,1.58,0.3,1.56,1.59c-0.09,5.36-0.11,10.73-0.01,16.09c0.03,1.49-0.44,1.75-1.79,1.71c-3.59-0.09-7.19,0-10.79-0.05
		c-1.05-0.02-1.54,0.09-1.53,1.38c0.08,6.18,0.06,12.37,0.01,18.55c-0.01,1.1,0.33,1.34,1.37,1.33c4.61-0.05,9.21,0.03,13.82-0.06
		c1.27-0.02,1.54,0.37,1.53,1.57c-0.06,5.68-0.06,11.36,0,17.04c0.01,1.21-0.29,1.56-1.54,1.56c-12.12-0.05-24.23-0.06-36.35,0
		c-1.56,0.01-1.98-0.37-1.97-1.96C603.18,249.2,603.16,233.3,603.16,217.39z"/>
	<path class="st1" d="M732.12,203.3c0.49-3.44,0.88-6.51,1.36-9.56c0.56-3.54,1.19-7.07,1.8-10.6c0.79-4.58,1.65-9.16,2.35-13.75
		c0.19-1.27,0.61-1.69,1.88-1.68c6.12,0.05,12.25,0.03,18.37,0.02c1.04,0,1.51-0.1,1.1,1.41c-2.19,8.02-4.09,16.11-6.21,24.15
		c-2.94,11.16-6.03,22.28-8.97,33.44c-0.76,2.88-1.28,5.79-1.24,8.84c0.12,9.91,0.02,19.83,0.08,29.74
		c0.01,1.42-0.37,1.78-1.79,1.76c-5.93-0.09-11.87-0.1-17.8,0.01c-1.5,0.03-1.73-0.44-1.72-1.81c0.06-10.61,0.04-21.21,0.05-31.82
		c0-4.05-1.49-7.8-2.41-11.64c-2.4-9.98-5.06-19.89-7.57-29.84c-1.64-6.5-3.18-13.02-4.8-19.52c-0.28-1.13-0.71-2.23-1.04-3.35
		c-0.26-0.88-0.13-1.38,1.02-1.37c6.31,0.05,12.63,0.04,18.94,0c0.86,0,1.17,0.22,1.3,1.11c0.53,3.62,1.17,7.22,1.76,10.83
		c0.63,3.84,1.32,7.67,1.86,11.52c0.48,3.39,0.79,6.8,1.17,10.2C731.67,201.91,731.48,202.48,732.12,203.3z"/>
	<path class="st2" d="M245.16,331.83c0-14.58-0.01-29.15,0.01-43.73c0-2.87-0.18-2.51,2.54-2.51c9.59,0.01,19.18,0.02,28.77-0.05
		c1.49-0.01,2.1,0.27,2.06,1.94c-0.11,4.86-0.09,9.72-0.01,14.58c0.03,1.57-0.4,2.01-2.04,1.93c-3.26-0.17-6.55,0.03-9.82-0.03
		c-0.91-0.02-1.08,0.31-1.08,1.06c0.01,5.05,0.03,10.1,0,15.15c-0.01,1.19,0.54,1.48,1.62,1.52c2.9,0.12,5.8,0.22,8.69-0.03
		c1.37-0.11,1.89,0.36,1.86,1.81c-0.08,4.79-0.06,9.59,0,14.39c0.01,1.13-0.29,1.55-1.48,1.52c-3.09-0.08-6.18,0.01-9.27-0.05
		c-1.02-0.02-1.43,0.21-1.42,1.35c0.06,5.93,0.06,11.86,0,17.79c-0.01,1.23,0.4,1.43,1.52,1.4c3.72-0.08,7.45,0.04,11.17-0.07
		c1.48-0.05,1.78,0.47,1.76,1.82c-0.07,4.98-0.06,9.97,0,14.96c0.02,1.25-0.36,1.62-1.6,1.61c-7.31-0.05-14.62-0.02-21.93-0.02
		c-3.15,0-6.3-0.1-9.44,0.04c-1.67,0.07-1.94-0.56-1.93-2.06C245.18,361.36,245.16,346.6,245.16,331.83
		C245.16,331.83,245.16,331.83,245.16,331.83z"/>
	<path class="st0" d="M945.01,331.93c0-13.07,0-26.13,0-39.2c0-1.89,0.14-3.79,0.03-5.67c-0.07-1.22,0.34-1.53,1.48-1.52
		c4.29,0.05,8.58,0.02,12.88,0.02c5.68,0,11.36,0.03,17.04-0.02c1.17-0.01,1.72,0.23,1.7,1.55c-0.1,4.85-0.2,9.71-0.09,14.56
		c0.04,1.86-0.61,2.43-2.34,2.37c-2.71-0.09-5.43,0.01-8.14-0.12c-1.49-0.07-2.33,0.37-2.33,1.92c-0.01,3.59,0.01,7.18,0.01,10.78
		c0,5.19,0,5.19,5.2,5.19c1.89,0,3.78,0,5.67,0c0.77,0,1.25,0.08,1.24,1.14c-0.05,4.92-0.05,9.83,0.07,14.75
		c0.03,1.41-0.49,1.73-1.74,1.71c-2.97-0.06-5.93,0.03-8.9-0.05c-1.06-0.03-1.43,0.39-1.59,1.36c-0.24,1.46,0.1,2.89,0.08,4.34
		c-0.06,4.41,0,8.83-0.02,13.24c-0.01,1.22,0.5,1.6,1.72,1.57c3.72-0.07,7.45,0,11.17-0.04c1.02-0.01,1.45,0.23,1.43,1.36
		c-0.05,2.96,0.17,5.92,0.01,8.87c-0.12,2.15,0.11,4.28,0.06,6.42c-0.03,1.24-0.52,1.72-1.83,1.71
		c-10.54-0.04-21.08-0.01-31.62,0.04c-1.01,0.01-1.1-0.36-1.1-1.22c0.03-15.02,0.02-30.04,0.02-45.06
		C945.09,331.93,945.05,331.93,945.01,331.93z"/>
	<path class="st0" d="M445.97,341.03c0-11.74-0.02-23.49,0.03-35.23c0.01-1.43-0.3-2.03-1.89-1.94c-2.83,0.16-5.67,0.07-8.5,0.14
		c-0.87,0.02-1.19-0.17-1.21-1.15c-0.13-5.24-0.07-10.47,0.04-15.71c0.03-1.28,0.5-1.59,1.68-1.59c13.45,0.03,26.9,0.03,40.34,0
		c1.04,0,1.49,0.31,1.51,1.37c0.12,5.17,0.16,10.34,0.02,15.51c-0.04,1.29-0.64,1.63-1.75,1.61c-2.39-0.05-4.79-0.05-7.18-0.13
		c-2.34-0.08-2.63,0.15-2.63,2.48c0,23.11,0,46.21,0,69.32c0,2.58,0,2.51-2.64,2.48c-5.24-0.06-10.48-0.15-15.72-0.01
		c-1.91,0.05-2.14-0.69-2.13-2.29c0.05-11.62,0.03-23.23,0.03-34.85C445.96,341.03,445.96,341.03,445.97,341.03z"/>
	<path class="st0" d="M208.04,340.85c0-11.67-0.03-23.35,0.04-35.02c0.01-1.61-0.46-2.12-2.02-1.95c-2.7,0.3-5.41,0.03-8.11,0.04
		c-1.23,0-1.62-0.36-1.6-1.63c0.07-5.17,0.05-10.33,0.02-15.5c-0.01-0.95,0.43-1.2,1.27-1.19c1.51,0.01,3.03-0.02,4.54-0.02
		c11.93,0,23.85,0.03,35.78-0.04c1.75-0.01,2.32,0.52,2.23,2.25c-0.27,4.91-0.27,9.83-0.06,14.75c0.05,1.14-0.5,1.39-1.49,1.37
		c-2.58-0.04-5.17-0.05-7.75-0.01c-2.26,0.04-2.39,0.25-2.39,2.53c0.01,23.22,0,46.44,0.05,69.67c0,1.72-0.57,2.11-2.18,2.08
		c-5.49-0.09-10.98-0.08-16.47,0.01c-1.53,0.03-1.88-0.47-1.87-1.93C208.06,364.46,208.03,352.65,208.04,340.85z"/>
	<path class="st1" d="M532.74,217.57c0,15.85-0.02,31.69,0.04,47.54c0.01,1.57-0.39,1.97-1.97,1.95c-6.56-0.1-13.13-0.07-19.7,0.01
		c-1.28,0.02-1.53-0.35-1.53-1.55c0.03-32.07,0.03-64.14,0-96.21c0-1.2,0.26-1.61,1.54-1.6c6.63,0.07,13.26,0.08,19.89,0
		c1.41-0.02,1.77,0.35,1.76,1.77C532.71,185.5,532.73,201.53,532.74,217.57C532.73,217.57,532.74,217.57,532.74,217.57z"/>
	<path class="st1" d="M95.13,217.53c0,15.91-0.02,31.82,0.04,47.74c0.01,1.5-0.39,1.83-1.85,1.81c-6.5-0.09-13.01-0.09-19.51-0.01
		c-1.21,0.01-1.43-0.31-1.43-1.44c0.03-32.14,0.03-64.28,0-96.42c0-1.15,0.27-1.5,1.46-1.49c6.57,0.06,13.13,0.07,19.7-0.01
		c1.38-0.02,1.63,0.44,1.63,1.72C95.12,185.45,95.13,201.49,95.13,217.53z"/>
	<path class="st0" d="M669.2,331.9c0-13.13,0.02-26.26-0.02-39.4c-0.01-1.89,0.39-3.77,0.02-5.66c-0.21-1.07,0.49-1.25,1.37-1.25
		c5.87,0,11.74,0,17.61-0.04c1.04-0.01,1.24,0.45,1.24,1.39c-0.01,22.41,0.02,44.82,0.03,67.23c0,1.32-0.07,2.65-0.09,3.97
		c-0.02,1.32,0.49,1.84,1.95,1.76c2.9-0.15,5.81-0.04,8.71-0.07c1.08-0.01,1.54,0.28,1.52,1.53c-0.09,5.17-0.1,10.34-0.03,15.52
		c0.01,1.14-0.26,1.33-1.36,1.33c-9.66-0.06-19.31-0.05-28.97-0.03c-1.28,0-1.91-0.02-1.9-1.77c0.12-14.83,0.07-29.66,0.07-44.49
		C669.29,331.9,669.25,331.9,669.2,331.9z"/>
	<path class="st0" d="M138.32,331.95c0,14.76-0.02,29.53,0.03,44.29c0.01,1.52-0.36,2.19-1.99,2.07c-5.6-0.4-11.21-0.05-16.81-0.13
		c-1.3-0.02-1.71-0.36-1.71-1.7c0.03-29.65,0.03-59.31-0.01-88.96c0-1.58,0.45-2.01,2.02-1.98c5.49,0.1,10.98,0.12,16.46-0.01
		c1.76-0.04,2.04,0.55,2.04,2.13C138.3,302.42,138.32,317.18,138.32,331.95z"/>
	<path class="st0" d="M503.54,331.78c0,14.7-0.04,29.4,0.05,44.1c0.01,1.88-0.55,2.32-2.33,2.29c-5.3-0.1-10.6-0.1-15.9,0.02
		c-1.82,0.04-2.32-0.47-2.32-2.31c0.06-27.51,0.04-55.02,0.05-82.52c0-2.08,0.04-4.16-0.02-6.25c-0.03-1.09,0.24-1.57,1.46-1.56
		c5.87,0.05,11.73,0.07,17.6-0.01c1.66-0.02,1.42,0.96,1.42,1.95C503.54,302.25,503.54,317.02,503.54,331.78z"/>
	<path class="st0" d="M755.25,331.89c0,13.06-0.01,26.12,0.01,39.19c0,1.83,0.07,3.66,0.16,5.48c0.06,1.09-0.26,1.61-1.47,1.6
		c-5.81-0.04-11.61-0.04-17.42,0.01c-1.03,0.01-1.37-0.49-1.38-1.35c-0.01-1.45,0.1-2.9,0.1-4.35c0.01-27.01,0.01-54.02,0-81.02
		c0-1.57-0.17-3.14,0-4.72c0.1-0.88,0.38-1.18,1.27-1.18c5.81,0.03,11.61,0.03,17.42,0c1.07,0,1.48,0.45,1.44,1.47
		c-0.06,1.64-0.14,3.28-0.14,4.91C755.24,305.26,755.25,318.58,755.25,331.89z"/>
	<path class="st1" d="M1206.48,212.46c-12.68,0-24.93,0-37.18,0c-5.93,0-11.87,0.12-17.8-0.02c-4.27-0.1-7.57,1.79-10.5,4.52
		c-4.62,4.31-6.75,9.98-8.03,15.94c-1.43,6.62-1.3,13.24,0.89,19.75c2.22,6.63,6.04,11.89,12.47,15c0.16,0.08,0.3,0.19,0.43,0.31
		c0.04,0.03,0.03,0.12,0.05,0.21c-0.36,0.64-1,0.34-1.5,0.35c-7.89,0.03-15.78,0.11-23.67,0c-4.76-0.06-8.02-2.67-10.48-6.63
		c-3.2-5.15-4.54-10.78-5.27-16.71c-0.98-8-0.23-15.81,2.4-23.36c1.66-4.75,4.09-9.14,8.99-11.54c0.87-0.43,1.66-0.48,2.52-0.48
		c25.19-0.01,50.38-0.01,75.56,0c2.09,0,4.13-0.65,6.27-0.06C1203.38,210.24,1205.01,210.73,1206.48,212.46z"/>
	<path class="st0" d="M957.88,139.58c0.43,0.71,0.27,1.42,0.27,2.09c0.02,4.73-0.21,9.48,0.1,14.2c0.19,2.93-0.81,5.19-2.39,7.41
		c-4.39,6.16-8.76,12.33-13.16,18.48c-4,5.61-7.99,11.23-11.94,16.88c-2.86,4.08-5.74,8.17-8.49,12.33
		c-2.6,3.94-5.48,7.73-8.23,11.59c-2.11,2.97-4.16,5.98-6.27,8.95c-0.29,0.41-0.32,1.12-1.12,1.09c-0.79-0.04-0.88-0.71-1.04-1.17
		c-1.64-4.8-3.73-9.42-5.63-14.12c-0.28-0.7-0.28-1.52,0.32-2.29c5.31-6.83,10.59-13.68,15.84-20.57
		c4.81-6.31,9.54-12.68,14.35-18.99c3.86-5.07,7.8-10.09,11.66-15.15c3.9-5.11,7.74-10.25,11.62-15.37
		C955.09,143.16,956.46,141.42,957.88,139.58z"/>
	<path class="st1" d="M849.82,242.79c0-7.95,0.02-15.91-0.03-23.86c-0.01-1.18,0.22-1.63,1.52-1.58c2.77,0.11,5.56,0.08,8.33,0.01
		c0.88-0.02,1.14,0.3,1.39,1.06c2.2,6.72,4.37,13.44,6.7,20.11c0.66,1.87-0.39,3.27-0.79,4.81c-2.11,8.06-4.34,16.08-6.53,24.12
		c-0.17,0.64-0.43,1.12-1.26,1.1c-2.78-0.04-5.56-0.05-8.33,0.01c-1.3,0.03-1-0.84-1-1.53
		C849.81,258.95,849.82,250.87,849.82,242.79z"/>
	<path class="st1" d="M787.69,242.75c0-7.95,0.02-15.9-0.03-23.85c-0.01-1.21,0.26-1.62,1.53-1.56c2.65,0.11,5.3,0.04,7.95,0.03
		c0.81,0,1.29,0.1,1.61,1.1c2.21,6.88,4.49,13.73,6.86,20.56c0.32,0.92,0,1.63-0.19,2.31c-2.32,8.55-4.77,17.06-7.11,25.6
		c-0.34,1.23-0.8,1.72-2.13,1.65c-2.33-0.13-4.67-0.12-7,0c-1.32,0.07-1.53-0.44-1.52-1.6C787.71,258.9,787.69,250.83,787.69,242.75
		z"/>
	<path class="st1" d="M817.59,242.96c0-8.01,0.02-16.02-0.03-24.03c-0.01-1.17,0.23-1.64,1.53-1.59c2.64,0.11,5.3,0.08,7.95,0.01
		c0.85-0.02,1.15,0.26,1.41,1.04c2.22,6.77,4.44,13.53,6.77,20.26c0.59,1.7-0.24,3.08-0.62,4.5c-2.14,7.96-4.49,15.87-6.68,23.82
		c-0.33,1.2-0.76,1.65-2.01,1.6c-2.27-0.09-4.55-0.14-6.81,0.02c-1.37,0.09-1.54-0.43-1.53-1.58
		C817.61,258.99,817.59,250.98,817.59,242.96z"/>
	<path class="st1" d="M878.61,242.87c0-7.88,0.03-15.77-0.03-23.65c-0.01-1.38,0.19-1.99,1.79-1.89c2.45,0.16,4.92,0.16,7.37-0.01
		c1.3-0.09,1.55,0.63,1.84,1.5c2.16,6.46,4.25,12.95,6.48,19.39c0.69,1.98-0.18,3.64-0.65,5.38c-2.04,7.6-4.14,15.18-6.23,22.77
		c-0.38,1.37-0.82,2.45-2.73,2.23c-2.11-0.25-4.29-0.13-6.42-0.02c-1.22,0.06-1.45-0.36-1.45-1.49
		C878.63,259.02,878.61,250.95,878.61,242.87z"/>
	<path class="st1" d="M1190.38,148.76c-1.5,0.14-3.03,0.01-4.54,0.02c-0.59,0-1.19,0.07-1.11-0.82c0.12-1.26-0.32-2.49-0.33-3.72
		c-0.02-5.65-0.6-11.28-0.72-16.91c-0.1-4.72-0.61-9.41-0.51-14.14c0.07-3.31-1.12-5.94-4.3-7.83c-4.26-2.53-8.14-5.71-12.23-8.53
		c-2.48-1.7-5.23-2.51-8.29-2.14c-4.25,0.52-8.51,0.97-12.77,1.45c-2.97,0.34-5.93,0.69-8.91,1.01c-4.03,0.43-8.05,0.84-12.08,1.26
		c-3.54,0.37-7.08,0.69-10.61,1.17c-1.83,0.25-3.13,2.04-3.55,3.77c-0.59,2.46-0.45,4.98-0.63,7.44
		c-0.53,7.23-1.11,14.46-1.54,21.69c-0.27,4.51-0.88,8.99-0.86,13.52c0.01,2.65-0.31,2.78-2.97,2.78c-17.36,0-34.73,0-52.09,0
		c-4.03,0-7.03,3-7.03,7.02c-0.01,5.11-0.05,10.23,0.03,15.34c0.02,1.27-0.37,1.61-1.59,1.55c-2.02-0.1-4.07,0.19-6.05-0.08
		c-2.74-0.37-5.79,2.87-5.69,5.64c0.12,3.78,0.07,7.58-0.01,11.36c-0.03,1.32,0.36,1.67,1.69,1.66c9.85-0.06,19.7-0.03,29.55-0.03
		c3.18,0,2.87-0.31,2.89,2.79c0.01,1.64-0.62,3.82,0.19,4.77c0.95,1.11,3.2,0.24,4.88,0.37c1.43,0.11,3.31-0.63,4.15,0.34
		c0.7,0.81,0.31,2.64,0.25,4.01c-0.05,1.09,0.32,1.4,1.38,1.37c2.9-0.06,5.81-0.02,8.71-0.01c0.42,0,1.14-0.2,1.19,0.25
		c0.14,1.31,0.28,2.69-0.02,3.94c-0.17,0.7-1.36,0.29-2.08,0.29c-18.82,0.02-37.63,0-56.45,0.03c-1.84,0-3.73,0.12-5.44,0.93
		c-4.98,2.35-7.25,6.91-8.97,11.67c-2.69,7.44-3.25,15.18-2.41,23.04c0.54,5.02,1.66,9.86,3.86,14.41c2.95,6.13,7.45,9.59,14.7,9.14
		c5.85-0.36,11.74-0.03,17.61-0.08c1.58-0.01,3.21,0.27,4.83-0.18c-0.19-0.72-0.72-0.78-1.13-1c-2.46-1.3-4.58-2.96-6.44-5.09
		c-4.9-5.59-6.76-12.22-7.21-19.41c-0.2-3.21,0.1-6.4,0.8-9.51c1.43-6.41,3.58-12.52,8.8-16.98c2.54-2.17,5.35-3.9,8.85-3.91
		c9.79-0.02,19.57,0.02,29.36-0.03c1.16-0.01,1.5,0.27,1.48,1.45c-0.08,3.66-0.1,7.33,0.01,10.98c0.04,1.37-0.38,1.64-1.67,1.63
		c-7.58-0.07-15.15-0.07-22.73-0.02c-4.86,0.03-8.38,3.61-8.61,8c-0.17,3.34,0,6.69-0.04,10.04c-0.01,0.93,0.18,1.32,1.24,1.32
		c14.84-0.04,29.68-0.03,44.51-0.01c0.95,0,1.3-0.22,1.32-1.25c0.07-3.9-0.16-7.78,0.27-11.69c0.42-3.78,1.04-7.47,2.29-11.07
		c1.6-4.61,3.8-8.84,7.54-12.09c2.28-1.98,4.73-3.49,8.02-3.37c4.79,0.18,9.6-0.02,14.39,0.09c1.56,0.04,2.22-0.34,1.92-1.94
		c-0.23-1.2,0.23-1.61,1.5-1.56c2.84,0.1,5.68-0.01,8.52,0.06c1.06,0.03,1.42-0.26,1.37-1.35c-0.07-1.5-0.51-3.5,0.25-4.38
		c0.9-1.05,2.96-0.31,4.51-0.34c3.89-0.06,3.95-0.02,3.92-3.84c-0.01-1.39,0.38-1.88,1.81-1.87c10.99,0.05,21.97-0.09,32.96,0.08
		c4.25,0.06,6.91-3.75,6.91-6.74c0.01-9.66,0.03-19.32,0.02-28.98C1197.24,151.78,1193.83,148.45,1190.38,148.76z M1157.79,168.89
		c-0.01,2.38-1.37,3.77-3.71,3.77c-13.18,0.01-26.36-0.05-39.54,0.06c-2.02,0.02-3.02-1.96-2.86-3.51
		c0.39-3.97,0.79-7.93,1.05-11.91c0.15-2.25,0.63-4.47,0.48-6.74c-0.03-0.54,0.48-1.11,0.74-1.67l0,0c0.15-4.43,0.58-8.84,1-13.26
		c0.36-3.73,0.49-7.48,0.85-11.21c0.4-4.16,0.4-8.35,1.11-12.48c0.05-0.31,0.02-0.63,0.02-0.94c0.05-3.74,0.31-4.13,4.02-4.57
		c3.16-0.38,6.35-0.5,9.51-0.8c4.59-0.44,9.16-0.98,13.75-1.41c3.6-0.34,7.21-0.61,10.83-0.82c1.59-0.1,2.41,0.77,2.41,2.41
		c-0.02,13.95-0.03,27.89-0.04,41.84v0l0,0c0.54,0.43,0.35,1.04,0.36,1.59C1157.79,155.77,1157.8,162.33,1157.79,168.89z
		 M1180.21,146.93c-0.04,1.04-0.31,1.67-1.22,2.25c-2.62,1.69-5.16,3.51-7.72,5.3c-0.67,0.47-1.4,1.03-2.2,0.7
		c-0.88-0.36-0.57-1.32-0.57-2.03c-0.02-7.38-0.01-14.77-0.01-22.15c0,0,0.01,0,0.01,0c0-7.45,0-14.89,0-22.34
		c0-0.61-0.25-1.34,0.41-1.74c0.74-0.45,1.12,0.42,1.56,0.7c2.49,1.56,4.9,3.24,7.3,4.95c1.5,1.06,1.57,2.86,1.61,4.38
		c0.13,4.97,0.28,9.94,0.34,14.91C1179.76,136.89,1180.42,141.9,1180.21,146.93z"/>
	<path class="st0" d="M1103.16,79.25c-3-2.95-6.06-5.86-9.16-8.71c-3.34-3.08-6.76-6.07-10.14-9.11c-2.15-1.94-4.27-3.91-6.42-5.83
		c-4.91-4.39-9.75-8.86-14.64-13.28c-3.69-3.33-7.32-6.79-10.95-10.19c-2.9-2.71-5.79-5.52-8.98-7.97
		c-5.17-3.99-10.31-8.04-16.47-10.31c-4.26-1.57-7.43-1.69-10.34,3.05c-3.31,5.39-6.83,10.66-10.34,15.91
		c-4.33,6.46-8.56,12.99-12.86,19.47c-3.11,4.68-6.16,9.43-9.23,14.15c-4.09,6.3-8.23,12.57-12.32,18.88
		c-3.48,5.36-7,10.69-10.52,16.02c-3.13,4.74-6.3,9.45-9.42,14.19c-0.4,0.61-1.1,1.18-0.17,2.08c3.73,3.61,6.99,7.7,10.82,11.23
		c0.94,0.87,1.53,0.96,2.47,0.02c2.28-2.25,4.74-4.32,7.03-6.54c5.83-5.64,11.86-11.05,17.66-16.72c3.48-3.4,7.13-6.61,10.61-10
		c2.81-2.74,5.65-5.52,8.74-8.02c2.76-2.23,5.04-5.03,7.73-7.38c0.5-0.44,0.99-0.96,1.59-0.62c1.15,0.65,2.44,0.59,3.63,0.97
		c4.42,1.42,8.84,2.82,13.28,4.18c4.04,1.24,8.13,2.36,12.16,3.63c5.02,1.58,10.06,3.06,15.08,4.64c3.83,1.21,7.67,2.46,11.58,3.44
		c1.36,0.34,1.9,1.19,2.08,2.53c0.22,1.67,0.59,3.33,0.99,4.97c0.63,2.6,1.35,5.18,2,7.77c0.87,3.47,1.69,6.94,2.57,10.41
		c0.89,3.5,1.94,6.96,2.7,10.48c0.75,3.46,1.94,6.81,2.46,10.32c0.13,0.84,0.82,1.31,1.82,1.28c1.83-0.07,3.66-0.02,5.49-0.02
		c0-0.05,0-0.1,0-0.15c2.21,0,4.41,0,6.62,0c0.76,0,1.04-0.31,1.12-1.13c0.8-8.01,1.47-16.03,2.14-24.04
		c0.63-7.55,1.38-15.1,1.86-22.67c0.21-3.31,0.71-6.61,0.64-9.95C1105.98,83.53,1105.08,81.14,1103.16,79.25z M1070.85,66.45
		c-7.02-2.48-14.06-4.93-21.05-7.49c-2.25-0.83-4.44-1.82-6.8-2.33c-0.78-0.17-0.72-0.8-0.73-1.34c-0.02-5.99-0.01-11.98,0-17.97
		c0-0.35-0.1-0.89,0.38-0.92c0.29-0.02,0.65,0.32,0.91,0.58c5.98,6,11.94,12.01,17.91,18.02c3.7,3.72,7.42,7.43,11.26,11.27
		C1071.94,66.76,1071.37,66.63,1070.85,66.45z"/>
	<path class="st1" d="M700.9,229.09c-0.05-4.73-2.09-8.71-5.99-11.47c-1.47-1.04-3.29-1.58-5.03-2.38
		c5.39-0.83,8.76-2.68,10.15-8.13c0.44-1.74,0.86-3.55,0.87-5.33c0.02-7.54,0.77-15.18-1.92-22.46c-1.93-5.2-5.5-8.93-11.01-10.33
		c-3.81-0.97-7.78-1.06-11.67-1.18c-8.2-0.25-16.41-0.05-24.62-0.1c-1.26-0.01-1.59,0.37-1.57,1.6c0.07,3.91,0.03,7.83,0.03,11.74
		c0,27.9,0.02,55.81-0.05,83.71c-0.01,1.97,0.54,2.35,2.39,2.32c6.31-0.12,12.63-0.11,18.94,0.01c1.67,0.03,1.9-0.5,1.89-1.99
		c-0.06-13.51-0.04-27.02-0.04-40.53c0-0.44-0.01-0.88,0.01-1.33c0.02-0.28-0.02-0.5,0.45-0.6c2.15-0.49,4.48,0.73,5.19,2.87
		c0.65,1.97,0.72,4.06,0.73,6.09c0.07,11.24,0.05,22.48,0.05,33.71c0,0.95-0.18,1.79,1.38,1.77c6.19-0.1,12.37-0.07,18.56-0.01
		c1.13,0.01,1.34-0.37,1.34-1.41C700.93,253.46,701.02,241.27,700.9,229.09z M678.98,203.59c-0.48,1.99-3.19,3.49-5.15,3.2
		c-0.87-0.13-0.54-0.72-0.54-1.13c-0.03-3.21-0.02-6.42-0.02-9.63c0-3.21,0.04-6.42-0.02-9.63c-0.02-1.03,0.33-1.3,1.29-1.22
		c2.8,0.23,4.52,1.18,4.86,4.66C679.86,194.46,680.08,199.05,678.98,203.59z"/>
	<path class="st1" d="M217.88,197.79c0-4.13,0.05-8.25-0.76-12.32c-1.42-7.16-4.82-13.02-11.4-16.56
		c-7.02-3.78-14.47-4.12-22.13-2.31c-8.35,1.97-13.62,7.22-16.47,15.16c-1.94,5.4-1.75,11.09-1.82,16.63
		c-0.2,14.74-0.29,29.49,0.2,44.23c0,4.85,0.76,9.56,3.01,13.87c4.5,8.58,12.07,12.29,21.41,12.79c4.31,0.23,8.55-0.32,12.65-1.88
		c6.29-2.39,10.56-6.7,13.09-12.94c1.72-4.25,2.15-8.68,2.18-13.13C217.95,226.81,217.88,212.3,217.88,197.79z M195.07,241.85
		c-0.02,2.5-0.13,5.09-0.62,7.63c-0.34,1.78-1.54,2.37-2.91,2.62c-1.23,0.23-2.52-1.4-2.8-2.89c-0.48-2.55-0.4-5.11-0.4-7.67
		c-0.01-8.01,0-16.02,0-24.03c0-9.08,0-18.17,0-27.25c0-2.01,0.23-3.95,1-5.84c0.53-1.29,1.49-1.51,2.69-1.5
		c1.24,0.01,1.98,0.74,2.32,1.79c0.7,2.14,0.75,4.43,0.76,6.62C195.2,208.16,195.23,225.01,195.07,241.85z"/>
	<path class="st1" d="M380.37,265.28c-0.44-2.37-0.77-4.76-1.09-7.14c-0.62-4.61-1.19-9.23-1.79-13.84
		c-0.66-5.13-1.33-10.25-2.01-15.38c-0.59-4.45-1.23-8.89-1.8-13.35c-0.44-3.45-0.81-6.91-1.23-10.36c-0.39-3.2-0.77-6.41-1.21-9.61
		c-0.58-4.24-1.23-8.48-1.81-12.72c-0.63-4.55-1.32-9.09-1.76-13.66c-0.14-1.47-0.76-1.53-1.88-1.52
		c-4.99,0.04-9.98,0.02-14.96,0.02c0,0,0,0,0,0.01c-5.05,0-10.1-0.01-15.15,0.02c-0.59,0-1.43-0.37-1.52,0.83
		c-0.19,2.42-0.48,4.84-0.74,7.26c-0.38,3.52-0.75,7.06-1.22,10.56c-0.66,5-1.19,10.02-1.78,15.02c-0.43,3.65-0.82,7.31-1.25,10.95
		c-0.6,5.12-1.19,10.25-1.8,15.37c-0.41,3.46-0.75,6.94-1.17,10.4c-0.6,5.06-1.23,10.11-1.87,15.16c-0.5,3.95-1.01,7.9-1.53,11.84
		c-0.15,1.18-0.14,1.96,1.53,1.93c6.25-0.11,12.5-0.05,18.75-0.05c1.07,0,2.36,0.37,3.17-0.09c1.07-0.61,0.22-2.06,0.45-3.11
		c0.13-0.6,0.34-1.2,0.38-1.81c0.27-3.93,0.55-7.86,0.73-11.79c0.04-0.91,0.45-1.01,1.17-1c1.89,0.02,3.79,0.02,5.68-0.02
		c0.74-0.01,1.24,0.1,1.13,1.01c-0.25,2.02,0.29,4,0.38,6c0.15,3.17,0.57,6.33,0.67,9.49c0.04,1.33,0.64,1.35,1.62,1.35
		c6.82-0.02,13.64-0.05,20.46,0.01C380.36,267.07,380.6,266.57,380.37,265.28z M351.65,231.37c-0.25,0-0.51,0-0.76,0
		c-3.34-0.02-3.47-0.3-2.99-3.68c0.47-3.32,0.72-6.68,1.07-10.02c0.42-4.16,0.82-8.32,1.27-12.48c0.3-2.77,0.77-5.53,0.96-8.31
		c0.08-1.26,0.61-2.39,0.68-3.49c0.42,6.06,0.79,12.12,1.27,18.17c0.44,5.54,1,11.07,1.5,16.6
		C354.92,231.36,354.91,231.37,351.65,231.37z"/>
	<path class="st0" d="M558.01,313.17c-0.1-4.39-0.1-8.89-1.36-13.22c-2.21-7.56-6.72-13.13-14.49-15.11
		c-8.5-2.16-16.77-1.64-23.73,4.57c-2.15,1.92-3.79,4.31-5.03,6.97c-2.47,5.32-2.42,11.03-2.48,16.66
		c-0.15,14.13-0.05,28.26-0.05,42.38c0.06,3.56,0.83,6.98,1.82,10.36c0.93,3.19,2.74,6.11,4.99,8.23c3.29,3.09,7.41,5.15,12.13,5.84
		c6.88,1.01,13.19,0,19.02-3.99c3.15-2.16,5.33-5.16,6.76-8.41c2.35-5.34,2.36-11.27,2.46-17
		C558.25,338.04,558.29,325.6,558.01,313.17z M537.5,360.65c-0.07,1.62-0.22,3.26-2.27,3.9c-1.88,0.58-3.46-0.23-3.7-2.33
		c-0.27-2.31-0.61-4.6-0.6-6.95c0.06-15.9,0.02-31.81,0.04-47.71c0-2.3,0.28-4.54,1.13-6.75c0.65-1.69,1.87-1.78,3.18-1.52
		c1.33,0.27,2.13,1.31,2.21,2.69c0.13,2.33,0.19,4.66,0.2,6.99c0.02,7.57,0.01,15.15,0.01,24.58
		C537.55,341.35,537.93,351,537.5,360.65z"/>
	<path class="st0" d="M327.56,333.33c-1.63-1.65-3.81-2.32-5.94-3.38c1.57-1,3.3-0.95,4.74-1.7c3.97-2.07,4.74-5.91,5.12-9.75
		c0.47-4.7,0.53-9.43,0.1-14.16c-0.43-4.77-1.54-9.26-4.6-13.06c-1.61-2.01-3.7-3.38-6.15-4.19c-3.6-1.2-7.4-1.14-11.08-1.35
		c-7.24-0.41-14.51-0.13-21.77-0.17c-0.88,0-1.18,0.28-1.29,1.16c-0.21,1.77,0.01,3.53,0.01,5.29c-0.01,26.64,0,53.28-0.01,79.93
		c0,1.32-0.08,2.65-0.15,3.97c-0.09,1.58,0.35,2.35,2.22,2.29c4.73-0.15,9.47-0.05,14.2-0.05c4.13,0,3.97,0,3.87-4.09
		c-0.3-12.24-0.2-24.48-0.07-36.73c0.01-0.52,0.04-0.93,0.6-0.93c1.46-0.01,2.86-0.27,4.09,1.18c1.59,1.89,1.61,4.24,1.62,6.2
		c0.05,10.85-0.07,21.71,0.13,32.56c0.03,1.4,0.4,1.85,1.82,1.83c5.18-0.06,10.35-0.03,15.53,0.03c0.91,0.01,1.2-0.16,1.19-1.13
		c-0.04-11.67,0.36-23.34-0.19-35.01C331.39,338.57,329.97,335.76,327.56,333.33z M312.45,319.53c-0.18,1.57-3.45,2.98-4.94,2.36
		c-0.67-0.28-0.67-0.86-0.67-1.42c-0.01-2.71,0-5.42,0-8.13c0.01,0,0.02,0,0.03,0c0-3.21,0.02-6.43-0.01-9.64
		c-0.01-1.36,0.54-1.78,1.89-1.48c3.01,0.67,4.61,2.88,4.39,5.96c-0.13,1.82-0.23,3.69,0.04,5.48
		C313.53,315.03,312.71,317.24,312.45,319.53z"/>
	<path class="st0" d="M664.99,371.4c-0.4-3.35-0.91-6.7-1.32-10.05c-0.52-4.25-1.04-8.5-1.59-12.74c-0.52-4.07-0.94-8.16-1.49-12.24
		c-0.78-5.7-1.42-11.42-2.14-17.13c-0.72-5.73-1.47-11.45-2.19-17.18c-0.65-5.1-1.32-10.19-1.88-15.3
		c-0.12-1.07-0.58-1.19-1.44-1.18c-4.42,0.02-8.83,0.01-13.25,0.01c0-0.01,0-0.01,0-0.02c-4.48,0-8.96,0.02-13.44-0.01
		c-0.96-0.01-1.43,0.15-1.5,1.31c-0.19,3.07-0.57,6.13-0.9,9.19c-0.71,6.49-1.45,12.97-2.16,19.46c-0.34,3.13-0.65,6.26-1,9.38
		c-0.38,3.41-0.83,6.81-1.2,10.22c-0.36,3.29-0.63,6.59-1.02,9.88c-0.62,5.24-1.39,10.46-1.96,15.7c-0.48,4.49-0.74,9-1.5,13.46
		c-0.66,3.89-0.19,4.35,3.76,4.06c0.31-0.02,0.63,0.01,0.94,0c4.6-0.1,9.21-0.24,13.81,0.1c1.55,0.11,2.1-0.44,2.18-1.96
		c0.11-2.18,0.52-4.33,0.49-6.53c-0.03-2.25,0.26-4.5,0.37-6.76c0.05-0.94,0.5-1.4,1.4-1.41c1.58-0.01,3.16-0.09,4.73,0.04
		c0.78,0.06,1.83,0.11,1.79,1.43c-0.14,4.47,0.88,8.88,0.75,13.34c-0.04,1.34,0.39,1.71,1.71,1.7c5.85-0.06,11.71-0.07,17.56,0.02
		c1.24,0.02,1.27-0.45,1.3-1.41C665.84,374.93,665.21,373.2,664.99,371.4z M642.56,345.44c-1.58-0.05-3.16-0.01-4.73-0.02
		c-0.88,0-1.34-0.2-1.21-1.34c0.43-3.61,0.81-7.24,1.01-10.87c0.24-4.32,0.69-8.64,1.11-12.93c0.38-3.9,0.82-7.84,1.5-12.2
		c1.2,3.59,1.02,6.8,1.23,9.97c0.36,5.36,1.12,10.7,1.34,16.06c0.14,3.4,0.73,6.74,0.86,10.13
		C643.71,345.17,643.47,345.47,642.56,345.44z"/>
	<path class="st0" d="M439.23,374.96c-1.02-9.81-2.34-19.59-3.7-29.36c-0.8-5.76-1.44-11.54-2.27-17.3
		c-0.57-3.98-0.98-7.99-1.48-11.98c-0.54-4.28-1.22-8.56-1.58-12.85c-0.43-5.01-1.55-9.93-1.73-14.97c-0.09-2.76-0.52-2.94-3.3-2.94
		c-3.91,0-7.83,0-11.74,0c-4.29,0-8.58,0.04-12.88-0.03c-1.25-0.02-1.75,0.36-1.95,1.63c-0.79,5.18-1.22,10.41-1.77,15.61
		c-0.58,5.42-1.28,10.83-1.77,16.27c-0.61,6.77-1.35,13.52-2.24,20.26c-0.78,5.94-1.4,11.9-2.06,17.84
		c-0.74,6.6-1.52,13.21-2.17,19.83c-0.08,0.81-0.06,1.2,0.85,1.19c6.31-0.03,12.62-0.04,18.94-0.05c0.73,0,1.18-0.19,1.2-1.05
		c0.08-3.69,0.52-7.37,0.69-11.05c0.21-4.51,0.52-4.93,5.15-4.51c0.31,0.03,0.62,0.11,0.94,0.12c1.33,0.04,1.85,0.76,1.96,2.04
		c0.36,4.27,0.23,8.56,0.91,12.82c0.21,1.32,0.58,1.69,1.83,1.68c5.11-0.05,10.23,0.01,15.34-0.04c1.05-0.01,2.29,0.62,3.12-0.17
		C440.48,377.04,439.34,375.97,439.23,374.96z M416.7,345.5c-1.83,0.01-3.66-0.01-5.48-0.02c-0.63,0-0.91-0.27-0.83-0.93
		c0.54-4.79,0.77-9.61,1.31-14.41c0.59-5.23,1.06-10.49,1.55-15.73c0.17-1.79,1.12-3.32,0.94-5.13c0.16,0.02,0.33,0.03,0.49,0.05
		c0.32,3.79,0.64,7.58,0.94,11.38c0.51,6.52,0.98,13.04,1.53,19.56c0.12,1.36-0.28,2.75,0.34,4.09
		C417.78,344.95,417.46,345.49,416.7,345.5z"/>
	<path class="st0" d="M939.91,376.07c-1.97-3.93-3.66-7.98-5.4-12.02c-0.99-2.3-0.93-2.08,1.16-3.69c1.52-1.17,3.81-1.97,3.82-4.45
		c0.03-4.54-0.04-9.08-0.04-13.61c0-0.41-0.01-0.78-0.42-0.95c-0.35-0.15-0.57,0.17-0.81,0.35c-2.97,2.29-5.97,4.56-8.9,6.91
		c-0.9,0.73-1.48,0.42-2.02-0.28c-0.38-0.49-0.63-1.09-0.88-1.66c-1.53-3.44-2.88-6.97-4.63-10.29c-1.16-2.19-0.77-3.8,0.61-5.58
		c2.77-3.57,4.07-7.81,4.58-12.17c0.56-4.83-0.01-9.64-2.21-14.11c-2.7-5.5-6.8-9.53-12.94-10.48c-5.38-0.83-10.84-0.71-15.89,2.1
		c-4.91,2.73-7.96,6.9-9.73,12.07c-1.18,3.45-0.91,7.07-0.94,10.65c-0.02,2.28,0.34,4.55,1.11,6.61c1.28,3.38,2.95,6.62,5.85,9.02
		c1.06,0.87,0.98,1.53-0.32,2.18c-1.26,0.63-2.43,1.43-3.54,2.35c-4.87,4.08-6.43,9.55-6.73,15.58c-0.21,4.12,0.4,8.17,1.68,12.05
		c1.21,3.68,3,7.18,5.86,9.86c3.6,3.38,8.1,4.36,12.95,3.95c5.42-0.46,10.03-2.88,14.38-5.91c2.32-1.61,3.09-1.45,3.7,1.38
		c0.42,1.93,1.54,2.34,3.21,2.33c2.46-0.03,4.92-0.01,7.38-0.01c0,0.01,0,0.02,0,0.02c2.52,0,5.04-0.01,7.57,0
		C940.24,378.29,940.73,377.72,939.91,376.07z M903.77,308.85c0.41-1.25,1.35-2.12,2.9-2.09c1.97,0.03,3.06,1.2,3.67,2.82
		c0.39,1.03,0.41,2.21,0.6,3.3c-0.41,3.22-1.34,6.22-3.1,8.93c-0.57,0.87-1.22,1.05-1.8,0.08
		C903.63,317.83,902.22,313.56,903.77,308.85z M911.18,362.41c-1.55,0.97-3.12,1.94-5.03,1.98c-2.63-0.02-4.32-1.62-4.74-4.71
		c-0.5-3.67,0.41-7.06,2.44-10.12c0.97-1.46,1.32-1.38,2.13,0.23c1.83,3.64,3.64,7.3,5.52,10.92
		C911.88,361.45,911.87,361.98,911.18,362.41z"/>
	<path class="st0" d="M1077.08,306.7c-0.15-3.94-0.65-7.84-2.02-11.69c-1.87-5.29-6.04-7.4-10.74-8.48c-2.92-0.67-6.04-1.09-9.16-1
		c-5.8,0.16-11.61,0.04-17.42,0.04c-4.09,0-4.08-0.01-4.08,4.19c0,14.27,0,28.53,0,42.8c0,14.58,0.02,29.17-0.03,43.75
		c0,1.46,0.32,1.91,1.89,1.89c5.3-0.07,10.6-0.04,15.9,0.16c1.94,0.07,2.66-0.56,2.52-2.39c-0.02-0.31,0.01-0.63,0.01-0.95
		c0-10.54,0-21.08,0.01-31.63c0-2.55,0-2.58,2.65-2.51c3.78,0.11,7.46-0.19,11.13-1.34c3.92-1.22,6.38-3.69,7.91-7.36
		c1.1-2.65,1.31-5.49,1.42-8.25C1077.28,318.19,1077.3,312.43,1077.08,306.7z M1060.41,319.56c0.03,3.28-2.11,5.62-4.57,5.99
		c-1.46,0.22-2.09-0.3-2.06-1.84c0.06-3.47,0.02-6.94,0.02-10.41c0.04,0,0.08,0,0.12,0c0-3.53,0.05-7.07-0.02-10.6
		c-0.03-1.39,0.55-1.77,1.82-1.64c2.44,0.25,3.43,1.22,4.07,3.64C1061.09,309.61,1060.36,314.61,1060.41,319.56z"/>
	<path class="st0" d="M876.33,296.31c-0.72-2.72-2.19-5.14-4.51-6.83c-4-2.91-8.76-3.62-13.47-3.81c-7.44-0.29-14.9-0.09-22.35-0.12
		c-1,0-1.5,0.27-1.48,1.39c0.03,1.89-0.12,3.78-0.12,5.68c-0.01,13.07-0.01,26.14-0.01,39.21c0,10.29-0.02,20.58,0.01,30.88
		c0.01,4.61,0.14,9.21,0.13,13.82c0,1.23,0.38,1.65,1.62,1.64c5.62-0.05,11.24-0.04,16.86,0c1.17,0.01,1.53-0.43,1.51-1.56
		c-0.03-1.95,0.12-3.91,0.13-5.86c0.02-9.28,0.04-18.56-0.02-27.84c-0.01-1.55,0.45-2.11,2.06-2.05c3.26,0.11,6.51,0.13,9.74-0.69
		c4.17-1.06,7.53-2.89,9.51-7c1.31-2.72,1.75-5.67,1.78-8.42C877.79,315.25,878.79,305.67,876.33,296.31z M861.01,319.1
		c-0.04,1.33-0.38,2.67-0.78,3.95c-0.41,1.31-3.32,2.84-4.62,2.51c-0.98-0.25-1.06-1.11-1.06-1.96c0-3.52,0-7.05,0-10.57
		c0.03,0,0.06,0,0.09,0c0-3.41-0.02-6.81,0.01-10.22c0.01-1.72,0.48-2.01,2.12-1.45c3.53,1.21,4.19,2.08,4.27,6.19
		C861.12,311.4,861.11,315.25,861.01,319.1z"/>
	<path class="st0" d="M1222.45,238.85c-0.12-4.31-0.94-8.69-2.9-12.68c-3.25-6.61-7.25-11.57-16.32-11.39
		c-16.4,0.33-32.81,0.34-49.21,0.09c-5.69-0.08-9.35,2.7-12.28,6.77c-3.55,4.93-5,10.77-5.41,16.74
		c-0.49,7.06,0.86,13.84,4.48,20.04c3.26,5.58,7.82,8.74,14.6,8.55c7.82-0.22,15.65-0.05,23.47-0.05c0,0.01,0,0.03,0,0.04
		c8.01,0,16.03-0.11,24.04,0.04c4.98,0.09,9.28-1.26,12.56-5.06C1221.2,255.3,1222.67,247.22,1222.45,238.85z M1167.61,250.68
		c-0.88,3.22-2.65,5.8-4.96,8.01c-1.61,1.54-3.38,3.17-5.69,2.63c-4.84,0.3-7.42-2.58-9.72-5.85c-2.86-4.06-3.8-8.88-3.9-13.58
		c-0.13-6.62,1.14-13.1,5.88-18.31c2.61-2.87,7.13-4.41,10.07-2.99c3.16,1.52,5.63,3.98,7.13,7.19c1.93,4.16,2.85,8.64,2.96,13.17
		C1169.44,244.24,1168.48,247.47,1167.61,250.68z M1215.32,245.4c-0.52,3.48-1.39,6.79-3.29,9.73c-2.62,4.04-5.33,6.85-10.74,6.17
		c-2.22-0.28-4.07-1.41-5.48-3.12c-2.58-3.14-4.33-6.63-5.17-10.71c-0.47-2.26-0.47-4.45-0.56-5.75c-0.34-7.2,1.42-12.86,5.3-17.75
		c3.35-4.22,9.57-5.44,13.84-0.78C1215.14,229.65,1216.56,237.05,1215.32,245.4z"/>
	<path class="st0" d="M1113.34,148.89c1,0.6,2.1,0.37,3.15,0.31c3.08-0.19,6.22,0.1,9.24-0.25c6.22-0.72,12.46-0.08,18.66-0.79
		c1.12-0.13,2.27,0.01,3.4,0c3.02-0.02,6.05,0.17,9.02-0.52c0.54,0.43,0.35,1.04,0.36,1.59c0.02,6.56,0.03,13.12,0.02,19.68
		c-0.01,2.38-1.37,3.77-3.71,3.77c-13.18,0.01-26.36-0.05-39.54,0.06c-2.02,0.02-3.02-1.96-2.86-3.51
		c0.39-3.97,0.79-7.93,1.05-11.91c0.15-2.25,0.63-4.47,0.48-6.74C1112.56,150.02,1113.07,149.44,1113.34,148.89z"/>
</g>
</svg>
